<?xml version="1.0" encoding="utf-8"?>
<!-- Generator: Adobe Illustrator 27.5.0, SVG Export Plug-In . SVG Version: 6.00 Build 0)  -->
<svg version="1.1" id="Layer_1" xmlns="http://www.w3.org/2000/svg" xmlns:xlink="http://www.w3.org/1999/xlink" x="0px" y="0px"
	 viewBox="0 0 1200 1200" style="enable-background:new 0 0 1200 1200;" xml:space="preserve">
<rect x="1" style="fill:#FFFFFF;" width="1200" height="1200"/>
<g>
	
		<ellipse transform="matrix(0.7071 -0.7071 0.7071 0.7071 -248.2352 600.7076)" style="fill:#F76031;" cx="601.001" cy="600" rx="429.304" ry="429.304"/>
	<g>
		<g>
			<g>
				<g>
					<path style="fill:#B0B0B0;" d="M246.458,619.225c0,0-4.403,8.199,26.862,15.027h654.553c0,0,21.9-1.4,27.667-11.727
						l0.036-5.652L246.458,619.225z"/>
					<path style="fill:#FFFFFF;" d="M246.61,602.678h709.197v18.209c0,0,1.065,2.441-7.286,1.828H253.286
						c0,0-6.531,1.832-7.138-2.432L246.61,602.678z"/>
					<path style="fill:#B0B0B0;" d="M922.867,613.32c0,0.703-0.47,1.269-1.055,1.269h-24.128c-0.584,0-1.052-0.566-1.052-1.269l0,0
						c0-0.717,0.468-1.293,1.052-1.293h24.128C922.397,612.027,922.867,612.604,922.867,613.32L922.867,613.32z"/>
				</g>
				<path style="fill:#B0B0B0;" d="M553.039,602.82c0,0-2.736,9.119,6.373,10.025h82.277c0,0,8.748,1.137,7.585-9.713
					L553.039,602.82z"/>
				<g>
					<linearGradient id="SVGID_1_" gradientUnits="userSpaceOnUse" x1="648.8427" y1="603.3242" x2="648.8427" y2="603.1113">
						<stop  offset="0.0244" style="stop-color:#5F6767"/>
						<stop  offset="0.4756" style="stop-color:#676B6C"/>
						<stop  offset="0.5137" style="stop-color:#717576"/>
						<stop  offset="0.6192" style="stop-color:#878A8B"/>
						<stop  offset="0.7202" style="stop-color:#949899"/>
						<stop  offset="0.811" style="stop-color:#999C9D"/>
					</linearGradient>
					<path style="fill:url(#SVGID_1_);" d="M648.85,603.324v-0.213h-0.014C648.836,603.178,648.836,603.248,648.85,603.324z"/>
				</g>
			</g>
		</g>
		<path style="fill:#161D21;" d="M886.077,602.598V279.351c0-14.675-11.999-26.676-26.667-26.676H342.601
			c-14.67,0-26.672,12.001-26.672,26.676v323.247H886.077z"/>
		<rect x="334.264" y="272.688" style="fill:#FFFFFF;" width="533.472" height="310.07"/>
	</g>
	<g>
		<path style="fill:#F76031;" d="M338.607,961.875c0,0.701-0.741,1.281-1.657,1.281H311c-0.912,0-1.657-0.58-1.657-1.281v-36.867
			c0-0.707,0.745-1.283,1.657-1.283h25.95c0.917,0,1.657,0.576,1.657,1.283V961.875z"/>
		<path style="fill:#F9F9F9;" d="M331.813,923.725h-9.37v39.432h9.37c0.905,0,1.65-0.58,1.65-1.281v-36.867
			C333.463,924.301,332.717,923.725,331.813,923.725z"/>
		<polygon style="fill:#FFD11D;" points="738.87,923.725 718.167,923.725 446.019,923.725 401.108,923.725 330.115,923.725 
			330.115,963.156 401.108,963.156 446.019,963.156 718.167,963.156 738.87,963.156 828.974,963.156 828.974,923.725 		"/>
		<polygon style="fill:#161D21;" points="738.87,938.148 718.167,938.148 446.019,938.148 401.108,938.148 330.115,938.148 
			330.115,948.729 401.108,948.729 446.019,948.729 718.167,948.729 738.87,948.729 828.974,948.729 828.974,938.148 		"/>
		<polygon style="fill:#F9F9F9;" points="828.736,963.271 814.752,943.435 828.725,923.611 892.658,943.435 		"/>
		<polygon style="fill:#161D21;" points="865.99,935.162 865.99,951.701 892.658,943.435 		"/>
	</g>
	<g>
		<g>
			<rect x="841.528" y="679.185" style="fill:#FFD11D;" width="146.577" height="11.354"/>
			<rect x="841.528" y="690.539" style="fill:#F9F9F9;" width="146.577" height="204.717"/>
			<g>
				<rect x="854.15" y="747.139" style="fill:#B0B0B0;" width="54.91" height="4.83"/>
				<rect x="854.15" y="766.904" style="fill:#B0B0B0;" width="121.334" height="4.828"/>
				<rect x="854.15" y="777.881" style="fill:#B0B0B0;" width="121.334" height="4.832"/>
				<rect x="854.15" y="788.861" style="fill:#B0B0B0;" width="121.334" height="4.83"/>
				<rect x="854.15" y="799.84" style="fill:#B0B0B0;" width="121.334" height="4.834"/>
			</g>
			<g>
				<rect x="854.15" y="810.836" style="fill:#B0B0B0;" width="121.334" height="4.828"/>
				<rect x="854.15" y="821.815" style="fill:#B0B0B0;" width="121.334" height="4.832"/>
				<rect x="854.15" y="832.797" style="fill:#B0B0B0;" width="121.334" height="4.828"/>
				<rect x="854.15" y="843.775" style="fill:#B0B0B0;" width="121.334" height="4.832"/>
			</g>
			<g>
				<rect x="854.15" y="854.701" style="fill:#B0B0B0;" width="121.334" height="4.83"/>
				<rect x="854.15" y="865.68" style="fill:#B0B0B0;" width="121.334" height="4.83"/>
				<rect x="854.15" y="876.658" style="fill:#B0B0B0;" width="121.334" height="4.832"/>
			</g>
		</g>
		<g>
			<path style="fill:#3B3B3B;" d="M882.739,707.359h4.601v2.113c-0.55,0.316-0.976,0.719-1.277,1.207
				c-0.502,0.795-0.841,1.732-1.014,2.816l-0.176,1.068c-0.059,0.336-0.185,0.602-0.376,0.795c-0.192,0.193-0.436,0.289-0.726,0.289
				c-0.305,0-0.551-0.105-0.744-0.313c-0.19-0.211-0.288-0.486-0.288-0.824V707.359z M896.521,707.359v20.549
				c0,0.455,0.089,0.781,0.261,0.98c0.095,0.115,0.182,0.189,0.263,0.217c0.083,0.033,0.351,0.103,0.807,0.221
				c0.56,0.129,0.837,0.447,0.837,0.963c0,0.303-0.149,0.547-0.453,0.732c-0.224,0.141-0.594,0.211-1.118,0.211h-0.578h-7.799
				h-0.578c-0.515,0-0.902-0.078-1.163-0.236c-0.263-0.156-0.395-0.393-0.395-0.707c0-0.516,0.28-0.834,0.84-0.963
				c0.455-0.117,0.724-0.188,0.804-0.221c0.081-0.027,0.165-0.102,0.244-0.217c0.176-0.199,0.265-0.525,0.265-0.98v-20.549H896.521z
				 M902.575,707.359v7.152c0,0.338-0.097,0.613-0.291,0.824c-0.19,0.207-0.44,0.313-0.743,0.313c-0.291,0-0.533-0.096-0.727-0.289
				c-0.192-0.193-0.316-0.459-0.375-0.795l-0.175-1.068c-0.175-1.084-0.515-2.021-1.015-2.816c-0.315-0.488-0.739-0.891-1.277-1.207
				v-2.113H902.575z"/>
			<path style="fill:#3B3B3B;" d="M910.532,711.799l0.892,3.621l-3.097,11.301c-0.093,0.324-0.14,0.629-0.14,0.908
				c0,0.734,0.344,1.26,1.032,1.574l0.612,0.281c0.383,0.176,0.577,0.465,0.577,0.871c0,0.586-0.424,0.877-1.277,0.877h-4.441
				c-0.435,0-0.771-0.09-1.025-0.272c-0.249-0.18-0.376-0.428-0.376-0.744c0-0.336,0.259-0.617,0.771-0.838
				c0.48-0.211,0.832-0.4,1.057-0.568c0.229-0.168,0.449-0.4,0.657-0.691c0.327-0.478,0.595-1.113,0.807-1.906L910.532,711.799z
				 M911.737,707.359h7.049l4.863,20.549c0.093,0.363,0.198,0.682,0.314,0.963c0.106,0.223,0.34,0.4,0.701,0.543
				c0.304,0.127,0.514,0.256,0.629,0.385c0.117,0.127,0.174,0.303,0.174,0.521c0,0.609-0.453,0.912-1.362,0.912h-8.729
				c-0.349,0-0.629-0.084-0.839-0.254c-0.211-0.168-0.315-0.393-0.315-0.674c0-0.232,0.048-0.406,0.141-0.525
				c0.094-0.113,0.304-0.262,0.631-0.435c0.231-0.119,0.396-0.246,0.489-0.385c0.093-0.143,0.14-0.315,0.14-0.525
				c0-0.199-0.019-0.373-0.053-0.525l-0.562-2.535h-4.878l0.472-2.082h3.917l-3.218-14.219L911.737,707.359z"/>
			<path style="fill:#3B3B3B;" d="M936.435,710.418l8.796,17.892c0.212,0.408,0.495,0.707,0.857,0.893
				c0.317,0.162,0.528,0.314,0.64,0.457c0.112,0.139,0.168,0.33,0.168,0.576c0,0.313-0.118,0.564-0.351,0.752
				c-0.198,0.162-0.619,0.244-1.262,0.244h-8.203c-0.627,0-1.035-0.041-1.223-0.123c-0.407-0.174-0.611-0.471-0.611-0.893
				c0-0.148,0.039-0.283,0.122-0.393c0.082-0.113,0.233-0.248,0.453-0.41c0.396-0.293,0.589-0.563,0.579-0.805
				c-0.01-0.199-0.118-0.496-0.315-0.895l-8.588-17.297c-0.141-0.291-0.293-0.522-0.456-0.69c-0.164-0.172-0.378-0.326-0.646-0.465
				c-0.234-0.115-0.394-0.244-0.482-0.383c-0.088-0.141-0.132-0.334-0.132-0.58c0-0.35,0.126-0.594,0.378-0.732
				c0.251-0.141,0.695-0.209,1.338-0.209h8.15c0.593,0,1.023,0.074,1.283,0.227c0.265,0.15,0.396,0.397,0.396,0.733
				c0,0.34-0.194,0.637-0.577,0.894c-0.175,0.129-0.295,0.234-0.359,0.322c-0.063,0.088-0.095,0.207-0.095,0.359
				C936.296,710.057,936.342,710.232,936.435,710.418z M932.115,722.697l0.962,1.992l-1.085,1.767
				c-0.399,0.654-0.595,1.172-0.595,1.557c0,0.561,0.315,0.971,0.944,1.225c0.35,0.141,0.589,0.279,0.716,0.422
				c0.13,0.139,0.194,0.33,0.194,0.576c0,0.324-0.14,0.596-0.421,0.805c-0.104,0.08-0.222,0.133-0.348,0.156
				c-0.13,0.023-0.376,0.035-0.736,0.035h-4.513c-0.373,0-0.667-0.078-0.883-0.236c-0.215-0.156-0.324-0.375-0.324-0.656
				c0-0.221,0.067-0.406,0.202-0.551c0.132-0.145,0.369-0.283,0.707-0.41c0.874-0.338,1.552-0.893,2.029-1.664L932.115,722.697z
				 M940.369,715.264l-0.977-1.943l0.977-1.66c0.221-0.385,0.334-0.717,0.334-0.996c0-0.258-0.08-0.508-0.237-0.754
				c-0.156-0.244-0.362-0.424-0.62-0.541l-0.612-0.279c-0.116-0.058-0.218-0.168-0.307-0.332c-0.087-0.164-0.131-0.328-0.131-0.49
				c0-0.279,0.1-0.502,0.298-0.664c0.196-0.164,0.459-0.244,0.786-0.244h5.058c0.324,0,0.594,0.07,0.812,0.217
				c0.218,0.147,0.324,0.336,0.324,0.568c0,0.281-0.106,0.525-0.316,0.736c-0.081,0.068-0.326,0.213-0.732,0.438
				c-0.829,0.453-1.517,1.113-2.065,1.977L940.369,715.264z"/>
		</g>
	</g>
	<g>
		<g>
			<g>
				<path style="fill:#161D21;" d="M588.097,888.549c0,2.506-2.027,4.535-4.532,4.535H220.602c-2.504,0-4.537-2.029-4.537-4.535
					V668.961c0-2.508,2.033-4.537,4.537-4.537h362.963c2.505,0,4.532,2.029,4.532,4.537V888.549z"/>
				<path style="fill:#FFFFFF;" d="M583.565,895.256H220.602c-3.696,0-6.707-3.008-6.707-6.707V668.961
					c0-3.701,3.011-6.709,6.707-6.709h362.963c3.695,0,6.703,3.008,6.703,6.709v219.588
					C590.268,892.248,587.26,895.256,583.565,895.256z M220.602,666.592c-1.302,0-2.363,1.063-2.363,2.369v219.588
					c0,1.307,1.061,2.367,2.363,2.367h362.963c1.303,0,2.363-1.06,2.363-2.367V668.961c0-1.307-1.06-2.369-2.363-2.369H220.602z"/>
			</g>
			<rect x="225.54" y="673.703" style="fill:#B0B0B0;" width="169.98" height="211.273"/>
			<g>
				<path style="fill:#161D21;" d="M394.561,884.977v-0.16V884.977L394.561,884.977z"/>
			</g>
			<g>
				<path style="fill:#161D21;" d="M395.521,884.977v-0.16V884.977L395.521,884.977z"/>
			</g>
			<g>
				<path style="fill:#199FA5;" d="M234.477,683.469h-12.163c-1.504,0-2.723,1.219-2.723,2.725v41.93
					c0,1.504,1.219,2.723,2.723,2.723h12.163V683.469z"/>
				<path style="fill:#199FA5;" d="M234.477,683.301h-12.163c-1.593,0-2.889,1.297-2.889,2.891v41.932
					c0,1.592,1.295,2.887,2.889,2.887h12.163V683.301z"/>
			</g>
			<g>
				<path style="fill:#161D21;" d="M396.481,884.977v-0.16V884.977L396.481,884.977z"/>
			</g>
			<g>
				<path style="fill:#161D21;" d="M397.441,884.977v-0.16V884.977L397.441,884.977z"/>
			</g>
			<g>
				<rect x="228.426" y="673.703" style="fill:#FFFFFF;" width="169.974" height="211.273"/>
				<path style="fill:#CCCCCC;" d="M398.4,884.977v-0.16V884.977L398.4,884.977z"/>
			</g>
			<rect x="408.332" y="673.703" style="fill:#B0B0B0;" width="169.979" height="211.273"/>
			<path style="fill:#FF641D;" d="M580.387,829.121h-10.749v47.375h10.749c1.502,0,2.72-1.219,2.72-2.723V831.84
				C583.106,830.342,581.889,829.121,580.387,829.121z"/>
			<path style="fill:#47A0E2;" d="M580.387,779.344h-10.749v47.377h10.749c1.502,0,2.72-1.219,2.72-2.723v-41.935
				C583.106,780.563,581.889,779.344,580.387,779.344z"/>
			<path style="fill:#FFD11D;" d="M580.387,729.935h-10.749v47.379h10.749c1.502,0,2.72-1.223,2.72-2.723v-41.934
				C583.106,731.154,581.889,729.935,580.387,729.935z"/>
			<rect x="403.843" y="673.703" style="fill:#FFFFFF;" width="169.981" height="211.273"/>
			<g>
				<path style="fill:#161D21;" d="M414.148,718.365c0,1.711-1.387,3.098-3.097,3.098c-1.711,0-3.099-1.387-3.099-3.098
					c0-1.713,1.388-3.098,3.099-3.098C412.761,715.268,414.148,716.652,414.148,718.365z"/>
				<path style="fill:#161D21;" d="M393.965,718.365c0,1.711-1.388,3.098-3.1,3.098c-1.713,0-3.098-1.387-3.098-3.098
					c0-1.713,1.385-3.098,3.098-3.098C392.578,715.268,393.965,716.652,393.965,718.365z"/>
				<path style="fill:#161D21;" d="M412.538,717.291c0,0.42-0.345,0.762-0.763,0.762h-21.44c-0.425,0-0.767-0.342-0.767-0.762l0,0
					c0-0.422,0.342-0.762,0.767-0.762h21.44C412.193,716.529,412.538,716.869,412.538,717.291L412.538,717.291z"/>
				<path style="fill:#161D21;" d="M412.538,719.443c0,0.424-0.345,0.762-0.763,0.762h-21.44c-0.425,0-0.767-0.338-0.767-0.762l0,0
					c0-0.42,0.342-0.76,0.767-0.76h21.44C412.193,718.684,412.538,719.023,412.538,719.443L412.538,719.443z"/>
			</g>
			<g>
				<path style="fill:#161D21;" d="M414.148,703.644c0,1.713-1.387,3.1-3.097,3.1c-1.711,0-3.099-1.387-3.099-3.1
					c0-1.713,1.388-3.1,3.099-3.1C412.761,700.545,414.148,701.932,414.148,703.644z"/>
				<path style="fill:#161D21;" d="M393.965,703.644c0,1.713-1.388,3.1-3.1,3.1c-1.713,0-3.098-1.387-3.098-3.1
					c0-1.713,1.385-3.1,3.098-3.1C392.578,700.545,393.965,701.932,393.965,703.644z"/>
				<path style="fill:#161D21;" d="M412.538,702.572c0,0.42-0.345,0.762-0.763,0.762h-21.44c-0.425,0-0.767-0.342-0.767-0.762l0,0
					c0-0.422,0.342-0.764,0.767-0.764h21.44C412.193,701.809,412.538,702.15,412.538,702.572L412.538,702.572z"/>
				<path style="fill:#161D21;" d="M412.538,704.727c0,0.422-0.345,0.764-0.763,0.764h-21.44c-0.425,0-0.767-0.342-0.767-0.764l0,0
					c0-0.422,0.342-0.766,0.767-0.766h21.44C412.193,703.961,412.538,704.305,412.538,704.727L412.538,704.727z"/>
			</g>
			<g>
				<path style="fill:#161D21;" d="M414.148,688.389c0,1.713-1.387,3.096-3.097,3.096c-1.711,0-3.099-1.383-3.099-3.096
					c0-1.713,1.388-3.1,3.099-3.1C412.761,685.289,414.148,686.676,414.148,688.389z"/>
				<path style="fill:#161D21;" d="M393.965,688.389c0,1.713-1.388,3.096-3.1,3.096c-1.713,0-3.098-1.383-3.098-3.096
					c0-1.713,1.385-3.1,3.098-3.1C392.578,685.289,393.965,686.676,393.965,688.389z"/>
				<path style="fill:#161D21;" d="M412.538,687.315c0,0.422-0.345,0.76-0.763,0.76h-21.44c-0.425,0-0.767-0.338-0.767-0.76l0,0
					c0-0.42,0.342-0.762,0.767-0.762h21.44C412.193,686.553,412.538,686.894,412.538,687.315L412.538,687.315z"/>
				<path style="fill:#161D21;" d="M412.538,689.469c0,0.42-0.345,0.766-0.763,0.766h-21.44c-0.425,0-0.767-0.346-0.767-0.766l0,0
					c0-0.424,0.342-0.764,0.767-0.764h21.44C412.193,688.705,412.538,689.045,412.538,689.469L412.538,689.469z"/>
			</g>
			<g>
				<path style="fill:#161D21;" d="M414.148,748.879c0,1.713-1.387,3.102-3.097,3.102c-1.711,0-3.099-1.389-3.099-3.102
					c0-1.711,1.388-3.098,3.099-3.098C412.761,745.781,414.148,747.168,414.148,748.879z"/>
				<path style="fill:#161D21;" d="M393.965,748.879c0,1.713-1.388,3.102-3.1,3.102c-1.713,0-3.098-1.389-3.098-3.102
					c0-1.711,1.385-3.098,3.098-3.098C392.578,745.781,393.965,747.168,393.965,748.879z"/>
				<path style="fill:#161D21;" d="M412.538,747.805c0,0.422-0.345,0.764-0.763,0.764h-21.44c-0.425,0-0.767-0.342-0.767-0.764l0,0
					c0-0.42,0.342-0.758,0.767-0.758h21.44C412.193,747.047,412.538,747.385,412.538,747.805L412.538,747.805z"/>
				<path style="fill:#161D21;" d="M412.538,749.961c0,0.42-0.345,0.762-0.763,0.762h-21.44c-0.425,0-0.767-0.342-0.767-0.762l0,0
					c0-0.422,0.342-0.762,0.767-0.762h21.44C412.193,749.199,412.538,749.539,412.538,749.961L412.538,749.961z"/>
			</g>
			<g>
				<path style="fill:#161D21;" d="M414.148,764.139c0,1.711-1.387,3.1-3.097,3.1c-1.711,0-3.099-1.389-3.099-3.1
					c0-1.713,1.388-3.102,3.099-3.102C412.761,761.037,414.148,762.426,414.148,764.139z"/>
				<path style="fill:#161D21;" d="M393.965,764.139c0,1.711-1.388,3.1-3.1,3.1c-1.713,0-3.098-1.389-3.098-3.1
					c0-1.713,1.385-3.102,3.098-3.102C392.578,761.037,393.965,762.426,393.965,764.139z"/>
				<path style="fill:#161D21;" d="M412.538,763.063c0,0.42-0.345,0.764-0.763,0.764h-21.44c-0.425,0-0.767-0.344-0.767-0.764l0,0
					c0-0.416,0.342-0.762,0.767-0.762h21.44C412.193,762.301,412.538,762.646,412.538,763.063L412.538,763.063z"/>
				<path style="fill:#161D21;" d="M412.538,765.215c0,0.424-0.345,0.764-0.763,0.764h-21.44c-0.425,0-0.767-0.34-0.767-0.764l0,0
					c0-0.416,0.342-0.762,0.767-0.762h21.44C412.193,764.453,412.538,764.799,412.538,765.215L412.538,765.215z"/>
			</g>
			<g>
				<path style="fill:#161D21;" d="M414.148,779.398c0,1.709-1.387,3.098-3.097,3.098c-1.711,0-3.099-1.389-3.099-3.098
					c0-1.715,1.388-3.102,3.099-3.102C412.761,776.297,414.148,777.684,414.148,779.398z"/>
				<path style="fill:#161D21;" d="M393.965,779.398c0,1.709-1.388,3.098-3.1,3.098c-1.713,0-3.098-1.389-3.098-3.098
					c0-1.715,1.385-3.102,3.098-3.102C392.578,776.297,393.965,777.684,393.965,779.398z"/>
				<path style="fill:#161D21;" d="M412.538,778.322c0,0.42-0.345,0.76-0.763,0.76h-21.44c-0.425,0-0.767-0.34-0.767-0.76l0,0
					c0-0.42,0.342-0.762,0.767-0.762h21.44C412.193,777.56,412.538,777.902,412.538,778.322L412.538,778.322z"/>
				<path style="fill:#161D21;" d="M412.538,780.477c0,0.418-0.345,0.762-0.763,0.762h-21.44c-0.425,0-0.767-0.344-0.767-0.762l0,0
					c0-0.426,0.342-0.768,0.767-0.768h21.44C412.193,779.709,412.538,780.051,412.538,780.477L412.538,780.477z"/>
			</g>
			<g>
				<path style="fill:#161D21;" d="M414.148,794.65c0,1.713-1.387,3.102-3.097,3.102c-1.711,0-3.099-1.389-3.099-3.102
					c0-1.709,1.388-3.096,3.099-3.096C412.761,791.555,414.148,792.941,414.148,794.65z"/>
				<path style="fill:#161D21;" d="M393.965,794.65c0,1.713-1.388,3.102-3.1,3.102c-1.713,0-3.098-1.389-3.098-3.102
					c0-1.709,1.385-3.096,3.098-3.096C392.578,791.555,393.965,792.941,393.965,794.65z"/>
				<path style="fill:#161D21;" d="M412.538,793.578c0,0.422-0.345,0.766-0.763,0.766h-21.44c-0.425,0-0.767-0.344-0.767-0.766l0,0
					c0-0.42,0.342-0.764,0.767-0.764h21.44C412.193,792.815,412.538,793.158,412.538,793.578L412.538,793.578z"/>
				<path style="fill:#161D21;" d="M412.538,795.732c0,0.42-0.345,0.762-0.763,0.762h-21.44c-0.425,0-0.767-0.342-0.767-0.762l0,0
					c0-0.422,0.342-0.764,0.767-0.764h21.44C412.193,794.969,412.538,795.31,412.538,795.732L412.538,795.732z"/>
			</g>
			<g>
				<path style="fill:#161D21;" d="M414.148,809.91c0,1.709-1.387,3.098-3.097,3.098c-1.711,0-3.099-1.389-3.099-3.098
					c0-1.711,1.388-3.098,3.099-3.098C412.761,806.813,414.148,808.199,414.148,809.91z"/>
				<path style="fill:#161D21;" d="M393.965,809.91c0,1.709-1.388,3.098-3.1,3.098c-1.713,0-3.098-1.389-3.098-3.098
					c0-1.711,1.385-3.098,3.098-3.098C392.578,806.813,393.965,808.199,393.965,809.91z"/>
				<path style="fill:#161D21;" d="M412.538,808.838c0,0.422-0.345,0.764-0.763,0.764h-21.44c-0.425,0-0.767-0.342-0.767-0.764l0,0
					c0-0.424,0.342-0.762,0.767-0.762h21.44C412.193,808.076,412.538,808.414,412.538,808.838L412.538,808.838z"/>
				<path style="fill:#161D21;" d="M412.538,810.99c0,0.42-0.345,0.762-0.763,0.762h-21.44c-0.425,0-0.767-0.342-0.767-0.762l0,0
					c0-0.42,0.342-0.762,0.767-0.762h21.44C412.193,810.229,412.538,810.57,412.538,810.99L412.538,810.99z"/>
			</g>
			<g>
				<path style="fill:#161D21;" d="M414.148,825.168c0,1.709-1.387,3.1-3.097,3.1c-1.711,0-3.099-1.391-3.099-3.1
					c0-1.713,1.388-3.102,3.099-3.102C412.761,822.066,414.148,823.455,414.148,825.168z"/>
				<path style="fill:#161D21;" d="M393.965,825.168c0,1.709-1.388,3.1-3.1,3.1c-1.713,0-3.098-1.391-3.098-3.1
					c0-1.713,1.385-3.102,3.098-3.102C392.578,822.066,393.965,823.455,393.965,825.168z"/>
				<path style="fill:#161D21;" d="M412.538,824.094c0,0.418-0.345,0.764-0.763,0.764h-21.44c-0.425,0-0.767-0.346-0.767-0.764l0,0
					c0-0.42,0.342-0.764,0.767-0.764h21.44C412.193,823.33,412.538,823.674,412.538,824.094L412.538,824.094z"/>
				<path style="fill:#161D21;" d="M412.538,826.248c0,0.422-0.345,0.762-0.763,0.762h-21.44c-0.425,0-0.767-0.34-0.767-0.762l0,0
					c0-0.422,0.342-0.762,0.767-0.762h21.44C412.193,825.486,412.538,825.826,412.538,826.248L412.538,826.248z"/>
			</g>
			<g>
				<path style="fill:#161D21;" d="M414.148,840.426c0,1.711-1.387,3.098-3.097,3.098c-1.711,0-3.099-1.387-3.099-3.098
					c0-1.713,1.388-3.098,3.099-3.098C412.761,837.328,414.148,838.713,414.148,840.426z"/>
				<path style="fill:#161D21;" d="M393.965,840.426c0,1.711-1.388,3.098-3.1,3.098c-1.713,0-3.098-1.387-3.098-3.098
					c0-1.713,1.385-3.098,3.098-3.098C392.578,837.328,393.965,838.713,393.965,840.426z"/>
				<path style="fill:#161D21;" d="M412.538,839.352c0,0.422-0.345,0.766-0.763,0.766h-21.44c-0.425,0-0.767-0.344-0.767-0.766l0,0
					c0-0.42,0.342-0.76,0.767-0.76h21.44C412.193,838.592,412.538,838.932,412.538,839.352L412.538,839.352z"/>
				<path style="fill:#161D21;" d="M412.538,841.506c0,0.422-0.345,0.76-0.763,0.76h-21.44c-0.425,0-0.767-0.338-0.767-0.76l0,0
					c0-0.422,0.342-0.766,0.767-0.766h21.44C412.193,840.74,412.538,841.084,412.538,841.506L412.538,841.506z"/>
			</g>
			<g>
				<path style="fill:#161D21;" d="M414.148,855.684c0,1.713-1.387,3.098-3.097,3.098c-1.711,0-3.099-1.385-3.099-3.098
					s1.388-3.1,3.099-3.1C412.761,852.584,414.148,853.971,414.148,855.684z"/>
				<path style="fill:#161D21;" d="M393.965,855.684c0,1.713-1.388,3.098-3.1,3.098c-1.713,0-3.098-1.385-3.098-3.098
					s1.385-3.1,3.098-3.1C392.578,852.584,393.965,853.971,393.965,855.684z"/>
				<path style="fill:#161D21;" d="M412.538,854.611c0,0.422-0.345,0.762-0.763,0.762h-21.44c-0.425,0-0.767-0.34-0.767-0.762l0,0
					c0-0.422,0.342-0.766,0.767-0.766h21.44C412.193,853.846,412.538,854.19,412.538,854.611L412.538,854.611z"/>
				<path style="fill:#161D21;" d="M412.538,856.766c0,0.418-0.345,0.758-0.763,0.758h-21.44c-0.425,0-0.767-0.34-0.767-0.758l0,0
					c0-0.424,0.342-0.764,0.767-0.764h21.44C412.193,856.002,412.538,856.342,412.538,856.766L412.538,856.766z"/>
			</g>
			<g>
				<path style="fill:#161D21;" d="M414.148,870.94c0,1.713-1.387,3.1-3.097,3.1c-1.711,0-3.099-1.387-3.099-3.1
					c0-1.709,1.388-3.096,3.099-3.096C412.761,867.844,414.148,869.231,414.148,870.94z"/>
				<path style="fill:#161D21;" d="M393.965,870.94c0,1.713-1.388,3.1-3.1,3.1c-1.713,0-3.098-1.387-3.098-3.1
					c0-1.709,1.385-3.096,3.098-3.096C392.578,867.844,393.965,869.231,393.965,870.94z"/>
				<path style="fill:#161D21;" d="M412.538,869.869c0,0.416-0.345,0.76-0.763,0.76h-21.44c-0.425,0-0.767-0.344-0.767-0.76l0,0
					c0-0.426,0.342-0.766,0.767-0.766h21.44C412.193,869.104,412.538,869.443,412.538,869.869L412.538,869.869z"/>
				<path style="fill:#161D21;" d="M412.538,872.021c0,0.422-0.345,0.764-0.763,0.764h-21.44c-0.425,0-0.767-0.342-0.767-0.764l0,0
					c0-0.42,0.342-0.764,0.767-0.764h21.44C412.193,871.258,412.538,871.602,412.538,872.021L412.538,872.021z"/>
			</g>
			<g>
				<path style="fill:#161D21;" d="M414.148,733.621c0,1.713-1.387,3.1-3.097,3.1c-1.711,0-3.099-1.387-3.099-3.1
					c0-1.711,1.388-3.098,3.099-3.098C412.761,730.523,414.148,731.91,414.148,733.621z"/>
				<path style="fill:#161D21;" d="M393.965,733.621c0,1.713-1.388,3.1-3.1,3.1c-1.713,0-3.098-1.387-3.098-3.1
					c0-1.711,1.385-3.098,3.098-3.098C392.578,730.523,393.965,731.91,393.965,733.621z"/>
				<path style="fill:#161D21;" d="M412.538,732.551c0,0.416-0.345,0.762-0.763,0.762h-21.44c-0.425,0-0.767-0.346-0.767-0.762l0,0
					c0-0.424,0.342-0.764,0.767-0.764h21.44C412.193,731.787,412.538,732.127,412.538,732.551L412.538,732.551z"/>
				<path style="fill:#161D21;" d="M412.538,734.699c0,0.42-0.345,0.766-0.763,0.766h-21.44c-0.425,0-0.767-0.346-0.767-0.766l0,0
					c0-0.416,0.342-0.76,0.767-0.76h21.44C412.193,733.94,412.538,734.283,412.538,734.699L412.538,734.699z"/>
			</g>
		</g>
		<g>
			<g>
				<rect x="250.579" y="819.652" style="fill:#B0B0B0;" width="51.792" height="5.168"/>
				<rect x="250.579" y="832.285" style="fill:#B0B0B0;" width="114.449" height="5.168"/>
				<rect x="250.579" y="844.041" style="fill:#B0B0B0;" width="114.449" height="5.166"/>
			</g>
			<g>
				<rect x="250.579" y="793.574" style="fill:#B0B0B0;" width="54.452" height="17.633"/>
			</g>
			<g>
				<rect x="309.211" y="793.574" style="fill:#B0B0B0;" width="54.45" height="17.633"/>
			</g>
		</g>
		<g>
			<g>
				<rect x="434.349" y="732.199" style="fill:#B0B0B0;" width="51.793" height="5.172"/>
				<rect x="434.349" y="744.834" style="fill:#B0B0B0;" width="114.448" height="5.17"/>
				<rect x="434.349" y="756.588" style="fill:#B0B0B0;" width="114.448" height="5.17"/>
			</g>
			<g>
				<rect x="434.349" y="706.123" style="fill:#B0B0B0;" width="54.456" height="17.635"/>
			</g>
			<g>
				<rect x="492.981" y="706.123" style="fill:#B0B0B0;" width="54.45" height="17.635"/>
			</g>
		</g>
		<g>
			<polygon style="fill:#FFD11D;" points="259.112,744.295 257.86,744.295 252.536,744.295 252.536,778.16 257.86,778.16 
				259.112,778.16 262.213,778.16 262.213,744.295 			"/>
			<polygon style="fill:#FFD11D;" points="281.943,762.318 280.694,762.318 277.592,762.318 277.592,778.16 280.694,778.16 
				281.943,778.16 287.27,778.16 287.27,762.318 			"/>
			<polygon style="fill:#F76031;" points="306.645,741.176 305.396,741.176 302.295,741.176 302.295,778.16 305.396,778.16 
				306.645,778.16 311.97,778.16 311.97,741.176 			"/>
			<polygon style="fill:#F76031;" points="331.813,704.188 330.563,704.188 327.462,704.188 327.462,778.16 330.563,778.16 
				331.813,778.16 337.14,778.16 337.14,704.188 			"/>
			<polygon style="fill:#F76031;" points="357.748,711.359 356.493,711.359 353.393,711.359 353.393,778.16 356.493,778.16 
				357.748,778.16 363.07,778.16 363.07,711.359 			"/>
		</g>
	</g>
	<g>
		<g>
			<g>
				<polygon style="fill:#B0B0B0;" points="753.719,676.525 626.012,676.525 626.012,895.256 803.863,895.256 803.863,732 				"/>
			</g>
			<g>
				<polygon style="fill:#FFFFFF;" points="753.719,676.525 626.012,676.525 626.012,895.256 803.863,895.256 803.863,732 
					753.719,732 				"/>
			</g>
		</g>
		<rect x="626.012" y="676.525" style="fill:#FFD11D;" width="127.668" height="11.484"/>
	</g>
	<g>
		<rect x="646.237" y="797.924" style="fill:#B0B0B0;" width="62.179" height="6.207"/>
		<rect x="646.237" y="813.092" style="fill:#B0B0B0;" width="137.399" height="6.205"/>
		<rect x="646.237" y="827.201" style="fill:#B0B0B0;" width="137.399" height="6.205"/>
	</g>
	<g>
		<rect x="646.237" y="855.9" style="fill:#B0B0B0;" width="137.399" height="6.205"/>
		<rect x="646.237" y="841.791" style="fill:#B0B0B0;" width="137.399" height="6.205"/>
	</g>
	<g>
		<g>
			<rect x="647.058" y="761.146" style="fill:#B0B0B0;" width="65.371" height="21.17"/>
		</g>
		<g>
			<rect x="717.448" y="761.146" style="fill:#B0B0B0;" width="65.369" height="21.17"/>
		</g>
	</g>
	<g>
		<rect x="400.192" y="288.7" style="fill:#EBE5EE;" width="205.833" height="275.946"/>
		<rect x="606.025" y="288.7" style="fill:#EBE5EE;" width="205.818" height="275.946"/>
		<rect x="604.614" y="288.7" style="fill:#DBDADA;" width="3.952" height="275.946"/>
		<rect x="390.189" y="356.68" style="fill:#B0B0B0;" width="20.008" height="36.538"/>
		<rect x="779.246" y="311.5" style="fill:#FFD11D;" width="22.521" height="62.367"/>
		<rect x="434.362" y="312.582" style="fill:#B0B0B0;" width="151.192" height="44.097"/>
		<rect x="633.341" y="311.5" style="fill:#B0B0B0;" width="136.068" height="9.095"/>
		<rect x="633.341" y="329.543" style="fill:#B0B0B0;" width="136.068" height="9.094"/>
		<rect x="633.341" y="347.585" style="fill:#B0B0B0;" width="136.068" height="9.095"/>
		<rect x="633.341" y="494.012" style="fill:#B0B0B0;" width="136.068" height="44.097"/>
		<rect x="434.362" y="371.169" style="fill:#B0B0B0;" width="151.192" height="166.94"/>
		<rect x="653.525" y="371.169" style="fill:#B0B0B0;" width="105.829" height="105.834"/>
	</g>
	<g>
		<polygon style="fill:#F76031;" points="460.492,496.952 458.743,496.952 451.3,496.952 451.3,525.602 458.743,525.602 
			460.492,525.602 464.829,525.602 464.829,496.952 		"/>
		<polygon style="fill:#F76031;" points="492.413,512.201 490.667,512.201 486.331,512.201 486.331,525.602 490.667,525.602 
			492.413,525.602 499.857,525.602 499.857,512.201 		"/>
		<polygon style="fill:#FFD11D;" points="526.95,494.314 525.201,494.314 520.866,494.314 520.866,525.602 525.201,525.602 
			526.95,525.602 534.394,525.602 534.394,494.314 		"/>
		<polygon style="fill:#FFD11D;" points="562.139,463.02 560.389,463.02 556.053,463.02 556.053,525.602 560.389,525.602 
			562.139,525.602 569.584,525.602 569.584,463.02 		"/>
	</g>
	<g>
		<path style="fill:#B0B0B0;" d="M730.301,719.771c-0.462-2.193-1.376-4.215-2.64-5.961l1.871-1.967l-4.15-3.953l-1.874,1.967
			c-1.808-1.178-3.87-1.994-6.082-2.344l-0.068-2.719l-5.729,0.139l0.066,2.717c-0.576,0.123-1.14,0.275-1.688,0.457
			c-1.546,0.51-2.982,1.254-4.27,2.186l-1.97-1.873l-3.952,4.152l1.968,1.873c-1.18,1.807-1.993,3.869-2.346,6.08l-2.717,0.068
			l0.141,5.73l2.717-0.066c0.461,2.193,1.375,4.215,2.641,5.961l-1.873,1.967l4.15,3.955l1.875-1.967
			c1.807,1.176,3.869,1.992,6.082,2.342l0.067,2.721l5.73-0.143l-0.065-2.717c0.576-0.119,1.139-0.273,1.688-0.453
			c1.544-0.514,2.982-1.254,4.271-2.188l1.967,1.873l3.953-4.15l-1.968-1.875c1.179-1.807,1.992-3.869,2.345-6.082l2.717-0.067
			l-0.141-5.73L730.301,719.771z M724.84,722.771c0.11,4.465-2.754,8.314-6.789,9.647c-0.903,0.301-1.867,0.475-2.869,0.498
			c-5.467,0.133-10.009-4.189-10.144-9.66c-0.109-4.465,2.756-8.313,6.789-9.647c0.905-0.299,1.869-0.473,2.87-0.494
			C720.165,712.981,724.705,717.303,724.84,722.771z"/>
		<polygon style="fill:#B0B0B0;" points="711.535,728.91 708.131,723.016 711.535,717.121 718.341,717.121 721.745,723.016 
			718.341,728.91 		"/>
	</g>
</g>
</svg>
